<?xml version="1.0" encoding="UTF-8" standalone="no"?>
<!-- Created with Inkscape (http://www.inkscape.org/) -->

<svg
   xmlns:dc="http://purl.org/dc/elements/1.1/"
   xmlns:cc="http://creativecommons.org/ns#"
   xmlns:rdf="http://www.w3.org/1999/02/22-rdf-syntax-ns#"
   xmlns:svg="http://www.w3.org/2000/svg"
   xmlns="http://www.w3.org/2000/svg"
   xmlns:sodipodi="http://sodipodi.sourceforge.net/DTD/sodipodi-0.dtd"
   xmlns:inkscape="http://www.inkscape.org/namespaces/inkscape"
   width="48"
   height="48"
   id="svg2"
   version="1.1"
   inkscape:version="0.48.3.1 r9886"
   sodipodi:docname="spanner.svg"
   inkscape:export-filename="/run/user/chromakode/gvfs/sftp:host=spirit/home/chromakode/misc/spanner.png"
   inkscape:export-xdpi="90"
   inkscape:export-ydpi="90"
   viewBox="0 0 48 48">
  <title
     id="title2993">spanner nico</title>
  <defs
     id="defs4" />
  <sodipodi:namedview
     id="base"
     pagecolor="#ffffff"
     bordercolor="#666666"
     borderopacity="1.0"
     inkscape:pageopacity="0.0"
     inkscape:pageshadow="2"
     inkscape:zoom="13.458333"
     inkscape:cx="23.108359"
     inkscape:cy="20.656347"
     inkscape:document-units="px"
     inkscape:current-layer="svg2"
     showgrid="false"
     inkscape:window-width="1108"
     inkscape:window-height="799"
     inkscape:window-x="20"
     inkscape:window-y="168"
     inkscape:window-maximized="0"
     inkscape:snap-global="false"
     showguides="true"
     inkscape:guide-bbox="true" />
  <metadata
     id="metadata7">
    <rdf:RDF>
      <cc:Work
         rdf:about="">
        <dc:format>image/svg+xml</dc:format>
        <dc:type
           rdf:resource="http://purl.org/dc/dcmitype/StillImage" />
        <dc:title>spanner nico</dc:title>
        <dc:creator>
          <cc:Agent>
            <dc:title>chromakode</dc:title>
          </cc:Agent>
        </dc:creator>
      </cc:Work>
    </rdf:RDF>
  </metadata>
  <path
     style="color:#000000;fill:#000000;fill-opacity:1;fill-rule:nonzero;stroke:none;stroke-width:0.40915978;marker:none;visibility:visible;display:inline;overflow:visible;enable-background:accumulate"
     d="m 36.947693,4.08145 c -2.161202,0 -4.049524,1.1786 -5.59923,2.7843 -8.384421,2.9582 -19.638646,6.8537 -25.6401893,6.8537 l -0.030597,0 -0.030597,0 c -1.8057606,0.063 -3.0978296,1.4221 -3.8552075,2.9067 -0.757378,1.4847 -1.12982249,3.2637 -1.19327855,5.0791 -0.0634561,1.8153 0.15439034,3.6586 0.88730965,5.232 0.7329193,1.5733 2.1596094,2.9692 4.0693857,3.1821 l 0.061194,0 0.091791,0 0.061194,0.3366 c 0.2272416,1.1585 0.9083037,1.9979 1.6522318,2.6619 l 1.9887975,7.9552 c 0.4427549,1.7557 1.9869637,2.8455 3.7634177,2.8455 l 5.415648,0 c 0.888227,0 1.787734,-0.3841 2.35596,-1.0709 0.568227,-0.6868 0.738,-1.6144 0.520148,-2.4783 l -1.560443,-6.5172 c 0.206354,-0.1348 0.346443,-0.2862 0.520147,-0.4589 3.171836,1.0061 7.627592,2.4006 10.861896,3.5492 1.573383,1.6525 3.483459,2.815 5.660422,2.8149 2.758764,0 5.131495,-1.8099 6.914896,-4.3141 1.762352,-2.4748 3.014307,-5.7303 3.426851,-9.2097 0.006,-0.041 0.02444,-0.082 0.0306,-0.1224 0.03935,-0.2604 0.0615,-0.5286 0.09179,-0.7955 l -4.742517,0 -2.906703,-3.641 2.906703,-3.6717 4.681323,0 c -0.06521,-0.4915 -0.156967,-0.9633 -0.244774,-1.438 l 0.0306,0 c -0.02157,-0.1173 -0.06889,-0.2203 -0.09179,-0.3366 -0.652451,-3.3128 -1.836002,-6.2137 -3.488045,-8.3835 -1.380572,-1.8133 -3.138106,-3.0995 -5.140276,-3.5493 l 0,-0.2141 -1.468651,0 z m 0,2.9679 c 1.467468,0 2.942976,0.84 4.283564,2.6007 0.811469,1.0658 1.534106,2.4303 2.111185,4.0388 -0.674494,-0.221 -1.381971,-0.3672 -2.141782,-0.3672 -3.222931,0 -5.929604,1.8953 -6.700717,3.5799 l -26.1603371,2.8149 c -2.2185795,0 -2.1465446,3.2432 0,3.2432 l 26.2215301,2.8455 c 0.799746,1.6603 3.446974,3.5493 6.639524,3.5493 0.920621,0 1.779715,-0.2109 2.570139,-0.5202 -0.539703,1.8697 -1.343386,3.5596 -2.294767,4.8955 -1.446863,2.0317 -3.142638,3.0903 -4.528339,3.0903 -1.344239,0 -2.630177,-0.6739 -3.885804,-2.1418 l -0.275372,-0.2753 -0.336566,-0.1836 c -3.611476,-1.2875 -8.873957,-2.9328 -12.085769,-3.947 l -1.37686,-0.459 -0.458953,1.3769 c -0.06954,0.2055 -0.124019,0.3258 -0.489551,0.3672 l -1.652231,0.1835 0.367162,1.6217 1.805216,7.588 -5.385051,0 c -0.33159,0 -0.879772,-0.4301 -0.917907,-0.5813 l -2.049991,-8.353 -0.122388,-0.4895 -0.4283561,-0.3672 c -0.6449497,-0.4888 -0.9093715,-0.7735 -1.0096972,-1.2851 l 0,-0.031 -0.275372,-1.438 -0.2141782,-1.0709 -1.1320847,-0.061 c -0.3220158,-0.02 -0.730622,-0.082 -1.1626816,-0.092 -0.7515076,-0.084 -1.2277584,-0.4918 -1.6828287,-1.4686 -0.4550703,-0.9769 -0.6932004,-2.4364 -0.6425346,-3.8858 0.050666,-1.4495 0.3690402,-2.93 0.8567128,-3.8859 0.4775337,-0.9361 0.9224084,-1.2286 1.315666,-1.2544 l 0.030597,0 c 7.2394393,-0.011 18.4009813,-4.1445 26.7722743,-7.0985 l 0.336566,-0.153 0.275372,-0.2754 c 1.250395,-1.4351 2.521229,-2.1111 3.82461,-2.1111 z"
     id="spanner"
     inkscape:connector-curvature="0" />
</svg>
